<?xml version="1.0" encoding="utf-8"?>
<!-- Generator: Adobe Illustrator 23.0.1, SVG Export Plug-In . SVG Version: 6.00 Build 0)  -->
<svg version="1.1" id="Layer_1" xmlns="http://www.w3.org/2000/svg" xmlns:xlink="http://www.w3.org/1999/xlink" x="0px" y="0px"
	 viewBox="0 0 70.1 25.9" style="enable-background:new 0 0 70.1 25.9;" xml:space="preserve">
<style type="text/css">
	.st0{fill:#3D3D3D;}
</style>
<g>
	<g>
		<g>
			<g>
				<path class="st0" d="M44.3,12.3c1.3-0.9,1.9-2,1.9-3.6v0c0-1.2-0.4-2.2-1.2-3c-1-1-2.6-1.6-4.6-1.6h-8l0,17.3h8.2
					c4.1,0,6.5-1.8,6.5-4.9v0C47.2,14.4,46.3,13.1,44.3,12.3 M40.6,17.6h-4.1v-3.2h4c1.6,0,2.5,0.5,2.5,1.6v0
					C43,17,42.2,17.6,40.6,17.6 M36.5,10.8v-3h3.4c1,0,2.2,0.3,2.2,1.5v0c0,1-0.8,1.5-2.4,1.5H36.5z"/>
				<path class="st0" d="M61,4.1h-6.8l0,17.3l6.8,0c2.6,0,4.9-0.9,6.6-2.5c1.6-1.6,2.6-3.8,2.6-6.1v0C70.1,7.7,66.3,4.1,61,4.1
					 M65.8,12.7L65.8,12.7c0,2.9-1.9,4.8-4.8,4.8h-2.6V7.9H61C63.8,7.9,65.8,9.8,65.8,12.7"/>
				<path class="st0" d="M50.4,4c1.2,0,2.1,0.9,2.1,2.1v15.2h-4.2V4L50.4,4z"/>
				<path class="st0" d="M14.8,15.3c-2.2,3.6,4.9,3.7,1.6,10.4c-0.1,0-0.2,0-0.3,0c-7.7,1.1-14.9-4.2-16-11.9
					c-0.5-3.7,0.4-7.2,2.3-10C2.1,11.9,16.9,11.9,14.8,15.3 M18,25.4c0.8-1.4,2.4-3.5,6-7.7c5.3-6.2-10.4-4.1-13.1-8.9
					c-2.2-3.9,6-6.7,11-8.8c3.2,2.1,5.6,5.6,6.2,9.7C29.1,16.8,24.7,23.4,18,25.4 M13.3,7.6c-0.5,0.3,0.4,1.5,2.8,1.6
					C18.6,9.2,15.5,6.4,13.3,7.6 M18.7,8.9c-1.8-0.6-0.6,0.9,0.2,1C19.8,9.9,20,9.3,18.7,8.9 M20.6,10.3c-0.6,0-0.7,0.3,0.2,0.5
					C22,11.1,21.2,10.3,20.6,10.3"/>
			</g>
		</g>
	</g>
</g>
</svg>
